<?xml version="1.0" standalone="no"?>
<!DOCTYPE svg PUBLIC "-//W3C//DTD SVG 20010904//EN"
 "http://www.w3.org/TR/2001/REC-SVG-20010904/DTD/svg10.dtd">
<svg version="1.0" xmlns="http://www.w3.org/2000/svg"
 width="420.000000pt" height="420.000000pt" viewBox="0 0 420.000000 420.000000"
 preserveAspectRatio="xMidYMid meet">
<metadata>
Created by potrace 1.14, written by Peter Selinger 2001-2017
</metadata>
<g transform="translate(0.000000,420.000000) scale(0.100000,-0.100000)"
fill="#000000" stroke="none">
<path d="M903 4018 c-6 -7 -27 -107 -47 -223 -21 -115 -63 -333 -94 -482 l-56
-273 -271 0 c-197 0 -274 -3 -283 -12 -7 -7 -12 -26 -12 -44 0 -24 20 -57 88
-145 102 -133 100 -132 262 -104 151 25 160 26 160 19 0 -4 -76 -280 -170
-614 -93 -333 -170 -620 -170 -637 0 -17 6 -35 13 -41 6 -5 68 -34 137 -63
158 -67 463 -221 467 -235 5 -14 -120 -199 -204 -304 -88 -110 -330 -358 -455
-467 -91 -79 -98 -88 -98 -122 0 -25 11 -52 35 -89 52 -77 71 -74 246 35 270
168 549 427 718 666 l69 98 60 -70 c33 -38 79 -95 101 -125 23 -31 54 -64 69
-73 15 -9 29 -18 31 -20 2 -1 -33 -43 -77 -92 -73 -80 -82 -93 -82 -128 0 -33
7 -46 43 -81 60 -59 78 -57 200 29 377 266 732 700 918 1124 l48 110 1 -380
c0 -209 -5 -553 -10 -764 -8 -284 -7 -387 1 -397 22 -26 84 -14 239 47 85 33
161 66 168 73 10 9 10 110 2 501 -5 270 -10 594 -9 720 l0 230 28 -75 c144
-391 341 -724 594 -1002 77 -86 92 -98 121 -98 21 0 40 8 52 21 51 56 204 119
291 119 23 0 46 6 52 14 8 9 11 48 9 112 l-3 99 -90 45 c-163 81 -279 176
-407 332 -189 230 -333 486 -449 797 -22 57 -39 105 -39 107 0 2 213 4 473 4
355 0 476 3 485 12 7 7 12 26 12 42 0 26 -28 62 -171 219 -212 232 -193 227
-341 92 l-103 -94 -257 -1 -258 0 0 265 0 265 433 0 c323 0 436 3 445 12 7 7
12 26 12 43 0 25 -27 60 -161 208 -201 222 -189 218 -329 92 l-95 -85 -152 0
-153 0 0 197 0 196 65 68 c55 56 65 73 65 102 0 19 -6 39 -12 45 -34 26 -439
192 -471 192 -59 0 -59 -4 -48 -255 6 -125 11 -298 11 -386 l0 -159 -373 0
c-277 0 -376 -3 -385 -12 -28 -28 -13 -66 67 -170 43 -57 88 -111 99 -122 24
-21 61 -20 237 7 55 9 157 19 228 22 l127 7 0 -266 0 -266 -410 0 c-225 0
-410 3 -410 8 0 4 14 77 30 162 l30 155 65 65 c56 57 65 70 65 102 0 36 -2 38
-162 148 -147 99 -167 110 -203 108 -36 -3 -44 -9 -90 -70 l-50 -67 -147 0
c-85 -1 -148 3 -148 8 0 13 70 243 127 416 44 135 48 142 104 200 64 65 76
107 42 137 -10 9 -106 63 -214 122 -198 107 -252 125 -276 94z m477 -1261 c0
-31 -107 -535 -155 -733 -57 -231 -150 -534 -164 -534 -5 0 -35 12 -67 26 -33
14 -102 42 -154 61 -52 20 -98 38 -103 42 -4 4 25 115 64 247 73 248 228 787
248 862 l12 42 159 0 c122 0 160 -3 160 -13z m352 -593 l42 -56 66 5 c36 3
110 12 165 20 55 9 157 19 228 22 l127 7 -21 -58 c-113 -303 -351 -754 -543
-1031 l-71 -103 -7 46 c-13 92 -95 185 -230 266 -52 31 -67 45 -62 57 61 149
167 500 224 744 18 75 34 137 36 137 2 0 22 -25 46 -56z"/>
</g>
</svg>
